PathFileType	4	(X/Y/Z)	C:\Users\ebm\Documents\Erivelton\Erivelton2\wc4.trc
DataRate	CameraRate	NumFrames	NumMarkers	Units	OrigDataRate	OrigDataStartFrame	OrigNumFrames
150.00	150.00	      5	28	mm	150.00	617	      1232
Frame#	Time	IJ			PX			C7			T8			RAC			RAS			RPS			RAI			RPI			RLE			RME			RRS			RUS			R3M			R5M			LAC			LAS			LPS			LAI			LPI			LLE			LME			LRS			LUS			L3M			L5M			RW			LW			V_mid_elbow_r			V_mid_elbow_l			V_mid_wrist_r			V_mid_wrist_l			V_mid_trunk_low			V_mid_trunk_upp			
		X1	Y1	Z1	X2	Y2	Z2	X3	Y3	Z3	X4	Y4	Z4	X5	Y5	Z5	X6	Y6	Z6	X7	Y7	Z7	X8	Y8	Z8	X9	Y9	Z9	X10	Y10	Z10	X11	Y11	Z11	X12	Y12	Z12	X13	Y13	Z13	X14	Y14	Z14	X15	Y15	Z15	X16	Y16	Z16	X17	Y17	Z17	X18	Y18	Z18	X19	Y19	Z19	X20	Y20	Z20	X21	Y21	Z21	X22	Y22	Z22	X23	Y23	Z23	X24	Y24	Z24	X25	Y25	Z25	X26	Y26	Z26	X27	Y27	Z27	X28	Y28	Z28	

617	4.107	709.56329	1007.48999	4.05113	695.57275	846.09692	18.71429	600.14215	1131.98633	2.35659	498.25439	994.79462	10.76255	643.90143	1075.04919	205.44315	532.28583	962.75055	289.66055	507.88470	1005.74835	280.92532	471.33905	926.85449	324.34879	443.26993	971.86462	316.46967	395.31192	922.39154	346.01309	364.84042	910.85449	269.52969	468.05826	665.55023	300.28970	426.59036	658.91931	347.07440	487.80069	596.21204	337.73853	452.76456	583.03101	347.34320	619.27637	1075.33997	-174.98283	512.80011	990.73236	-257.13040	481.57703	1007.94379	-224.51044	458.47552	944.18195	-295.14023	420.29749	962.82941	-259.68893	390.78824	889.54883	-329.16180	354.36417	878.41803	-258.12689	484.44620	642.90649	-307.09998	441.39645	623.52618	-350.16791	504.24316	566.75836	-344.67706	465.57037	560.28949	-353.12662	590.28436	297.43338	320.31973	611.36414	298.48004	-309.03763	
618	4.113	716.64612	1007.27545	4.49405	703.06116	845.98004	19.00381	607.97516	1132.00488	2.70965	505.95462	994.90869	11.08886	651.62982	1074.96216	205.72108	539.11359	962.89734	289.19577	515.02887	1006.03168	280.43704	477.81216	927.15656	323.46664	450.03537	972.30365	315.37885	401.72058	922.88867	344.50244	371.60300	911.86536	267.82245	472.37653	665.67859	298.11319	431.36807	659.01428	344.52115	492.05539	596.45386	335.70819	456.66119	583.26727	344.73544	627.06067	1075.38159	-174.57776	520.02240	991.16113	-256.36240	488.52112	1008.89551	-223.69868	465.18594	944.80823	-294.04984	427.33490	963.74323	-258.49011	396.94702	890.61481	-327.63010	360.72971	880.07770	-256.37109	487.05038	642.61914	-304.89999	444.02420	623.72693	-348.35736	506.27029	566.55676	-342.08154	467.58551	560.11584	-350.77139	597.66791	297.33395	320.58148	618.97321	298.46512	-308.79993	
619	4.120	725.06464	1007.07849	4.59881	710.68164	845.90289	19.23174	615.98059	1131.96130	3.05544	513.64166	995.00427	11.45678	659.42462	1074.83850	206.04935	546.02075	962.91077	288.73398	522.12811	1006.11945	279.95193	484.53256	927.21088	322.37894	456.76349	972.45380	314.37949	408.20392	923.15881	343.00763	378.50470	912.46814	266.11505	477.26563	665.66400	296.22324	435.63828	659.04651	343.01123	496.89023	597.01758	333.89780	461.13776	583.21167	342.69550	634.77344	1075.40491	-174.22296	527.16815	991.46259	-255.60162	495.93991	1009.43707	-222.94093	471.97690	945.23407	-292.91693	434.30685	964.50916	-257.36652	403.32480	891.39777	-326.08353	367.33923	881.37036	-254.67915	489.92044	642.18109	-302.72647	446.91745	623.70374	-346.47946	508.63217	566.03906	-339.46527	470.00516	559.68683	-348.22717	604.97473	297.21658	320.84235	626.62933	298.53430	-308.52863	
620	4.127	732.83081	1006.95599	4.95852	718.23486	845.77875	19.50702	623.68890	1132.03479	3.37568	521.37653	995.16760	11.77801	667.15320	1074.67603	206.35774	553.16199	962.68695	288.20645	529.34387	1005.94531	279.51273	491.34485	926.99274	321.55591	463.70255	972.28223	313.42197	414.94678	922.98175	341.66312	385.62634	912.68774	264.48706	482.76297	665.31665	294.49316	440.80130	658.57849	340.99857	502.35492	597.45813	332.49945	466.50687	583.07513	341.14624	642.41833	1075.37134	-173.89807	534.40167	991.70569	-254.86688	503.41132	1009.79462	-222.18213	478.97641	945.45685	-291.87051	441.43204	965.05133	-256.28082	409.86621	891.89563	-324.65213	374.13373	882.39667	-253.04311	493.16550	641.71265	-300.65045	450.19705	623.47125	-344.40765	511.37131	565.39795	-337.04630	472.62515	559.22211	-345.67383	612.43341	297.05231	321.11307	634.14423	298.51746	-308.23520	
621	4.133	740.47656	1006.80450	5.25147	725.96497	845.64435	19.87030	631.69147	1131.99487	3.65811	529.03979	995.24603	12.13469	674.87701	1074.48096	206.70219	560.29211	962.28992	287.72864	536.55280	1005.57202	279.12106	498.27084	926.51477	320.68137	470.75964	971.81604	312.51938	421.63071	922.57300	340.26889	392.86649	912.54846	262.94971	488.92157	664.80347	293.04410	446.52100	657.95276	339.37567	508.40143	597.67657	332.39212	472.84476	582.99677	340.16113	650.11884	1075.35120	-173.63091	541.70959	991.73529	-254.17404	510.84799	1010.16577	-221.49789	485.99521	945.55902	-290.86270	448.65756	965.39282	-255.24686	416.56042	892.16602	-323.24518	381.23566	883.06879	-251.57700	496.92743	641.06921	-298.56284	453.69550	623.00458	-342.42154	514.66937	564.93365	-334.72272	475.63284	558.66803	-343.48514	619.72833	297.02063	321.35608	641.76898	298.47113	-308.00772	
